<svg width="50" height="50" viewBox="0 0 50 50" fill="none" xmlns="http://www.w3.org/2000/svg">
<path d="M20.1406 39.65V22.9813H18.1625C16.7458 23.7365 15.3765 24.5776 14.0625 25.5V27.6719C15.2344 26.8687 17.0906 25.7344 17.9937 25.2438H18.0312V39.65H20.1406V39.65ZM23.8531 35.5719C24 37.5719 25.7094 39.9656 29.175 39.9656C33.1063 39.9656 35.425 36.6344 35.425 30.9938C35.425 24.95 32.9844 22.6562 29.3219 22.6562C26.4281 22.6562 23.7062 24.7563 23.7062 28.3094C23.7062 31.9344 26.2813 33.8406 28.9438 33.8406C31.275 33.8406 32.7875 32.6656 33.2656 31.3719H33.35C33.3375 35.4844 31.9094 38.1344 29.2719 38.1344C27.1969 38.1344 26.1219 36.7281 25.9906 35.5719H23.8531V35.5719ZM33.0813 28.3312C33.0813 30.5062 31.3344 32.0188 29.3813 32.0188C27.5031 32.0188 25.8063 30.8219 25.8063 28.2687C25.8063 25.6969 27.625 24.4875 29.4562 24.4875C31.4344 24.4875 33.0813 25.7312 33.0813 28.3312Z" fill="#699BF7"/>
<path d="M10.9375 0C11.3519 0 11.7493 0.16462 12.0424 0.457646C12.3354 0.750671 12.5 1.1481 12.5 1.5625V3.125H37.5V1.5625C37.5 1.1481 37.6646 0.750671 37.9576 0.457646C38.2507 0.16462 38.6481 0 39.0625 0C39.4769 0 39.8743 0.16462 40.1674 0.457646C40.4604 0.750671 40.625 1.1481 40.625 1.5625V3.125H43.75C45.4076 3.125 46.9973 3.78348 48.1694 4.95558C49.3415 6.12769 50 7.7174 50 9.375V43.75C50 45.4076 49.3415 46.9973 48.1694 48.1694C46.9973 49.3415 45.4076 50 43.75 50H6.25C4.5924 50 3.00269 49.3415 1.83058 48.1694C0.65848 46.9973 0 45.4076 0 43.75V9.375C0 7.7174 0.65848 6.12769 1.83058 4.95558C3.00269 3.78348 4.5924 3.125 6.25 3.125H9.375V1.5625C9.375 1.1481 9.53962 0.750671 9.83265 0.457646C10.1257 0.16462 10.5231 0 10.9375 0V0ZM6.25 6.25C5.4212 6.25 4.62634 6.57924 4.04029 7.16529C3.45424 7.75134 3.125 8.5462 3.125 9.375V43.75C3.125 44.5788 3.45424 45.3737 4.04029 45.9597C4.62634 46.5458 5.4212 46.875 6.25 46.875H43.75C44.5788 46.875 45.3737 46.5458 45.9597 45.9597C46.5458 45.3737 46.875 44.5788 46.875 43.75V9.375C46.875 8.5462 46.5458 7.75134 45.9597 7.16529C45.3737 6.57924 44.5788 6.25 43.75 6.25H6.25Z" fill="#699BF7"/>
<path d="M7.8125 12.5C7.8125 12.0856 7.97712 11.6882 8.27015 11.3951C8.56317 11.1021 8.9606 10.9375 9.375 10.9375H40.625C41.0394 10.9375 41.4368 11.1021 41.7299 11.3951C42.0229 11.6882 42.1875 12.0856 42.1875 12.5V15.625C42.1875 16.0394 42.0229 16.4368 41.7299 16.7299C41.4368 17.0229 41.0394 17.1875 40.625 17.1875H9.375C8.9606 17.1875 8.56317 17.0229 8.27015 16.7299C7.97712 16.4368 7.8125 16.0394 7.8125 15.625V12.5Z" fill="#699BF7"/>
</svg>
