<svg width="50" height="50" viewBox="0 0 50 50" fill="none" xmlns="http://www.w3.org/2000/svg">
<path d="M25 16.6667C20.3958 16.6667 16.6667 20.3958 16.6667 25C16.6667 29.6042 20.3958 33.3333 25 33.3333C29.6042 33.3333 33.3333 29.6042 33.3333 25C33.3333 20.3958 29.6042 16.6667 25 16.6667ZM43.625 22.9167C43.1531 18.6919 41.2586 14.7532 38.2527 11.7473C35.2468 8.74135 31.3081 6.84689 27.0833 6.37499V2.08333H22.9167V6.37499C18.6919 6.84689 14.7532 8.74135 11.7473 11.7473C8.74135 14.7532 6.84689 18.6919 6.37499 22.9167H2.08333V27.0833H6.37499C6.84689 31.3081 8.74135 35.2468 11.7473 38.2527C14.7532 41.2586 18.6919 43.1531 22.9167 43.625V47.9167H27.0833V43.625C31.3081 43.1531 35.2468 41.2586 38.2527 38.2527C41.2586 35.2468 43.1531 31.3081 43.625 27.0833H47.9167V22.9167H43.625V22.9167ZM25 39.5833C16.9375 39.5833 10.4167 33.0625 10.4167 25C10.4167 16.9375 16.9375 10.4167 25 10.4167C33.0625 10.4167 39.5833 16.9375 39.5833 25C39.5833 33.0625 33.0625 39.5833 25 39.5833Z" fill="#699BF7"/>
</svg>
