<svg width="50" height="50" viewBox="0 0 50 50" fill="none" xmlns="http://www.w3.org/2000/svg">
<path d="M6.25001 2.08333H39.5833C40.1359 2.08333 40.6658 2.30282 41.0565 2.69352C41.4472 3.08422 41.6667 3.61413 41.6667 4.16666V12.5C41.6667 13.0525 41.4472 13.5824 41.0565 13.9731C40.6658 14.3638 40.1359 14.5833 39.5833 14.5833H6.25001C5.69747 14.5833 5.16757 14.3638 4.77687 13.9731C4.38617 13.5824 4.16667 13.0525 4.16667 12.5V4.16666C4.16667 3.61413 4.38617 3.08422 4.77687 2.69352C5.16757 2.30282 5.69747 2.08333 6.25001 2.08333V2.08333ZM6.25001 18.75H39.5833C40.1359 18.75 40.6658 18.9695 41.0565 19.3602C41.4472 19.7509 41.6667 20.2808 41.6667 20.8333V22.2292L36.4583 19.9167L22.9167 25.9167V31.25H6.25001C5.69747 31.25 5.16757 31.0305 4.77687 30.6398C4.38617 30.2491 4.16667 29.7192 4.16667 29.1667V20.8333C4.16667 20.2808 4.38617 19.7509 4.77687 19.3602C5.16757 18.9695 5.69747 18.75 6.25001 18.75V18.75ZM6.25001 35.4167H22.9167C23.0417 40.1042 25 44.5833 28.0417 47.9167H6.25001C5.69747 47.9167 5.16757 47.6972 4.77687 47.3065C4.38617 46.9158 4.16667 46.3859 4.16667 45.8333V37.5C4.16667 36.9475 4.38617 36.4176 4.77687 36.0269C5.16757 35.6362 5.69747 35.4167 6.25001 35.4167V35.4167ZM16.6667 10.4167H18.75V6.24999H16.6667V10.4167ZM16.6667 27.0833H18.75V22.9167H16.6667V27.0833ZM16.6667 43.75H18.75V39.5833H16.6667V43.75ZM8.33334 6.24999V10.4167H12.5V6.24999H8.33334ZM8.33334 22.9167V27.0833H12.5V22.9167H8.33334ZM8.33334 39.5833V43.75H12.5V39.5833H8.33334ZM36.4583 25L45.8333 29.1667V35.4167C45.8333 41.2083 41.8333 46.6042 36.4583 47.9167C31.0833 46.6042 27.0833 41.2083 27.0833 35.4167V29.1667L36.4583 25ZM36.4583 29.0417L31.25 31.375V36.9167C31.25 40.125 33.4792 43.125 36.4583 43.875V29.0417V29.0417Z" fill="#699BF7"/>
</svg>
