<svg width="50" height="50" viewBox="0 0 50 50" fill="none" xmlns="http://www.w3.org/2000/svg">
<path d="M26.5625 15.625C26.5625 15.2106 26.3979 14.8132 26.1049 14.5201C25.8118 14.2271 25.4144 14.0625 25 14.0625C24.5856 14.0625 24.1882 14.2271 23.8951 14.5201C23.6021 14.8132 23.4375 15.2106 23.4375 15.625V23.4375H18.75C18.3356 23.4375 17.9382 23.6021 17.6451 23.8951C17.3521 24.1882 17.1875 24.5856 17.1875 25C17.1875 25.4144 17.3521 25.8118 17.6451 26.1049C17.9382 26.3979 18.3356 26.5625 18.75 26.5625H25C25.4144 26.5625 25.8118 26.3979 26.1049 26.1049C26.3979 25.8118 26.5625 25.4144 26.5625 25V15.625Z" fill="#699BF7"/>
<path d="M17.7094 50C14.8344 50 12.5 47.6688 12.5 44.7906V38.9781C10.531 37.221 8.95621 35.0671 7.87902 32.658C6.80183 30.2488 6.24666 27.639 6.25 25C6.25 19.4469 8.6625 14.4563 12.5 11.025V5.20938C12.5 2.33438 14.8312 0 17.7094 0H32.2906C35.1656 0 37.5 2.33125 37.5 5.20938V11.0219C40.6771 13.8593 42.7914 17.6955 43.4938 21.8969C43.7173 21.8608 43.9461 21.8735 44.1643 21.9342C44.3825 21.9949 44.5849 22.1022 44.7577 22.2486C44.9306 22.3949 45.0696 22.577 45.1654 22.7822C45.2611 22.9875 45.3113 23.211 45.3125 23.4375V26.5625C45.3124 26.7893 45.2629 27.0134 45.1675 27.2191C45.0721 27.4249 44.933 27.6074 44.7599 27.754C44.5869 27.9006 44.384 28.0078 44.1653 28.0681C43.9466 28.1284 43.7175 28.1403 43.4938 28.1031C42.7914 32.3045 40.6771 36.1407 37.5 38.9781V44.7906C37.5 47.6656 35.1688 50 32.2906 50H17.7094ZM40.625 25C40.625 20.856 38.9788 16.8817 36.0485 13.9515C33.1183 11.0212 29.144 9.375 25 9.375C20.856 9.375 16.8817 11.0212 13.9515 13.9515C11.0212 16.8817 9.375 20.856 9.375 25C9.375 29.144 11.0212 33.1183 13.9515 36.0485C16.8817 38.9788 20.856 40.625 25 40.625C29.144 40.625 33.1183 38.9788 36.0485 36.0485C38.9788 33.1183 40.625 29.144 40.625 25Z" fill="#699BF7"/>
</svg>
